# MagicaVoxel @ Ephtracy

# group
o 

# material
mtllib Missile.mtl
usemtl palette

# normals
vn -1 0 0
vn 1 0 0
vn 0 0 1
vn 0 0 -1
vn 0 -1 0
vn 0 1 0

# texcoords
vt 0.841797 0.5
vt 0.958984 0.5
vt 0.994141 0.5

# verts
v -0.5 0.4 0
v -0.5 0.4 -0.2
v -0.5 0.6 0
v -0.5 0.6 -0.2
v -0.4 0.4 0.1
v -0.4 0.4 0
v -0.4 0.6 0.1
v -0.4 0.6 0
v -0.3 0.3 0.3
v -0.3 0.3 -0.3
v -0.3 0.3 -0.4
v -0.3 0.4 0.1
v -0.3 0.4 -0.2
v -0.3 0.6 0.1
v -0.3 0.6 -0.2
v -0.3 0.7 0.3
v -0.3 0.7 -0.3
v -0.3 0.7 -0.4
v -0.2 0.2 0.3
v -0.2 0.2 -0.3
v -0.2 0.2 -0.4
v -0.2 0.3 0.4
v -0.2 0.3 0.3
v -0.2 0.3 -0.3
v -0.2 0.3 -0.4
v -0.2 0.3 -0.5
v -0.2 0.7 0.4
v -0.2 0.7 0.3
v -0.2 0.7 -0.3
v -0.2 0.7 -0.4
v -0.2 0.7 -0.5
v -0.2 0.8 0.3
v -0.2 0.8 -0.3
v -0.2 0.8 -0.4
v -0.1 0 0
v -0.1 0 -0.2
v -0.1 0.1 0.1
v -0.1 0.1 0
v -0.1 0.2 0.1
v -0.1 0.2 -0.2
v -0.1 0.4 0.5
v -0.1 0.4 0.4
v -0.1 0.6 0.5
v -0.1 0.6 0.4
v -0.1 0.8 0.1
v -0.1 0.8 -0.2
v -0.1 0.9 0.1
v -0.1 0.9 0
v -0.1 1 0
v -0.1 1 -0.2
v 0.1 0.4 0.4
v 0.1 0.4 0.3
v 0.1 0.6 0.4
v 0.1 0.6 0.3
v 0.2 0.3 0.3
v 0.2 0.3 -0.3
v 0.2 0.7 0.3
v 0.2 0.7 -0.3
v -0.2 0.3 0.3
v -0.2 0.3 -0.3
v -0.2 0.7 0.3
v -0.2 0.7 -0.3
v -0.1 0.4 0.4
v -0.1 0.4 0.3
v -0.1 0.6 0.4
v -0.1 0.6 0.3
v 0.1 0 0
v 0.1 0 -0.2
v 0.1 0.1 0.1
v 0.1 0.1 0
v 0.1 0.2 0.1
v 0.1 0.2 -0.2
v 0.1 0.4 0.5
v 0.1 0.4 0.4
v 0.1 0.6 0.5
v 0.1 0.6 0.4
v 0.1 0.8 0.1
v 0.1 0.8 -0.2
v 0.1 0.9 0.1
v 0.1 0.9 0
v 0.1 1 0
v 0.1 1 -0.2
v 0.2 0.2 0.3
v 0.2 0.2 -0.3
v 0.2 0.2 -0.4
v 0.2 0.3 0.4
v 0.2 0.3 0.3
v 0.2 0.3 -0.3
v 0.2 0.3 -0.4
v 0.2 0.3 -0.5
v 0.2 0.7 0.4
v 0.2 0.7 0.3
v 0.2 0.7 -0.3
v 0.2 0.7 -0.4
v 0.2 0.7 -0.5
v 0.2 0.8 0.3
v 0.2 0.8 -0.3
v 0.2 0.8 -0.4
v 0.3 0.3 0.3
v 0.3 0.3 -0.3
v 0.3 0.3 -0.4
v 0.3 0.4 0.1
v 0.3 0.4 -0.2
v 0.3 0.6 0.1
v 0.3 0.6 -0.2
v 0.3 0.7 0.3
v 0.3 0.7 -0.3
v 0.3 0.7 -0.4
v 0.4 0.4 0.1
v 0.4 0.4 0
v 0.4 0.6 0.1
v 0.4 0.6 0
v 0.5 0.4 0
v 0.5 0.4 -0.2
v 0.5 0.6 0
v 0.5 0.6 -0.2
v -0.1 0.4 0.5
v -0.1 0.6 0.5
v 0.1 0.4 0.5
v 0.1 0.6 0.5
v -0.2 0.3 0.4
v -0.2 0.7 0.4
v -0.1 0.4 0.4
v -0.1 0.6 0.4
v 0.1 0.4 0.4
v 0.1 0.6 0.4
v 0.2 0.3 0.4
v 0.2 0.7 0.4
v -0.3 0.3 0.3
v -0.3 0.7 0.3
v -0.2 0.2 0.3
v -0.2 0.3 0.3
v -0.2 0.7 0.3
v -0.2 0.8 0.3
v 0.2 0.2 0.3
v 0.2 0.3 0.3
v 0.2 0.7 0.3
v 0.2 0.8 0.3
v 0.3 0.3 0.3
v 0.3 0.7 0.3
v -0.4 0.4 0.1
v -0.4 0.6 0.1
v -0.3 0.4 0.1
v -0.3 0.6 0.1
v -0.1 0.1 0.1
v -0.1 0.2 0.1
v -0.1 0.8 0.1
v -0.1 0.9 0.1
v 0.1 0.1 0.1
v 0.1 0.2 0.1
v 0.1 0.8 0.1
v 0.1 0.9 0.1
v 0.3 0.4 0.1
v 0.3 0.6 0.1
v 0.4 0.4 0.1
v 0.4 0.6 0.1
v -0.5 0.4 0
v -0.5 0.6 0
v -0.4 0.4 0
v -0.4 0.6 0
v -0.1 0 0
v -0.1 0.1 0
v -0.1 0.9 0
v -0.1 1 0
v 0.1 0 0
v 0.1 0.1 0
v 0.1 0.9 0
v 0.1 1 0
v 0.4 0.4 0
v 0.4 0.6 0
v 0.5 0.4 0
v 0.5 0.6 0
v -0.2 0.3 -0.3
v -0.2 0.7 -0.3
v 0.2 0.3 -0.3
v 0.2 0.7 -0.3
v -0.1 0.4 0.4
v -0.1 0.6 0.4
v 0.1 0.4 0.4
v 0.1 0.6 0.4
v -0.2 0.3 0.3
v -0.2 0.7 0.3
v -0.1 0.4 0.3
v -0.1 0.6 0.3
v 0.1 0.4 0.3
v 0.1 0.6 0.3
v 0.2 0.3 0.3
v 0.2 0.7 0.3
v -0.5 0.4 -0.2
v -0.5 0.6 -0.2
v -0.3 0.4 -0.2
v -0.3 0.6 -0.2
v -0.1 0 -0.2
v -0.1 0.2 -0.2
v -0.1 0.8 -0.2
v -0.1 1 -0.2
v 0.1 0 -0.2
v 0.1 0.2 -0.2
v 0.1 0.8 -0.2
v 0.1 1 -0.2
v 0.3 0.4 -0.2
v 0.3 0.6 -0.2
v 0.5 0.4 -0.2
v 0.5 0.6 -0.2
v -0.3 0.3 -0.4
v -0.3 0.7 -0.4
v -0.2 0.2 -0.4
v -0.2 0.3 -0.4
v -0.2 0.7 -0.4
v -0.2 0.8 -0.4
v 0.2 0.2 -0.4
v 0.2 0.3 -0.4
v 0.2 0.7 -0.4
v 0.2 0.8 -0.4
v 0.3 0.3 -0.4
v 0.3 0.7 -0.4
v -0.2 0.3 -0.5
v -0.2 0.7 -0.5
v 0.2 0.3 -0.5
v 0.2 0.7 -0.5
v -0.1 0 0
v 0.1 0 0
v -0.1 0 -0.2
v 0.1 0 -0.2
v -0.1 0.1 0.1
v 0.1 0.1 0.1
v -0.1 0.1 0
v 0.1 0.1 0
v -0.2 0.2 0.3
v 0.2 0.2 0.3
v -0.1 0.2 0.1
v 0.1 0.2 0.1
v -0.1 0.2 -0.2
v 0.1 0.2 -0.2
v -0.2 0.2 -0.3
v 0.2 0.2 -0.3
v -0.2 0.2 -0.4
v 0.2 0.2 -0.4
v -0.2 0.3 0.4
v 0.2 0.3 0.4
v -0.3 0.3 0.3
v -0.2 0.3 0.3
v 0.2 0.3 0.3
v 0.3 0.3 0.3
v -0.3 0.3 -0.3
v -0.2 0.3 -0.3
v 0.2 0.3 -0.3
v 0.3 0.3 -0.3
v -0.3 0.3 -0.4
v -0.2 0.3 -0.4
v 0.2 0.3 -0.4
v 0.3 0.3 -0.4
v -0.2 0.3 -0.5
v 0.2 0.3 -0.5
v -0.1 0.4 0.5
v 0.1 0.4 0.5
v -0.1 0.4 0.4
v 0.1 0.4 0.4
v -0.4 0.4 0.1
v -0.3 0.4 0.1
v 0.3 0.4 0.1
v 0.4 0.4 0.1
v -0.5 0.4 0
v -0.4 0.4 0
v 0.4 0.4 0
v 0.5 0.4 0
v -0.5 0.4 -0.2
v -0.3 0.4 -0.2
v 0.3 0.4 -0.2
v 0.5 0.4 -0.2
v -0.1 0.6 0.4
v 0.1 0.6 0.4
v -0.1 0.6 0.3
v 0.1 0.6 0.3
v -0.2 0.7 0.3
v 0.2 0.7 0.3
v -0.2 0.7 -0.3
v 0.2 0.7 -0.3
v -0.2 0.3 0.3
v 0.2 0.3 0.3
v -0.2 0.3 -0.3
v 0.2 0.3 -0.3
v -0.1 0.4 0.4
v 0.1 0.4 0.4
v -0.1 0.4 0.3
v 0.1 0.4 0.3
v -0.1 0.6 0.5
v 0.1 0.6 0.5
v -0.1 0.6 0.4
v 0.1 0.6 0.4
v -0.4 0.6 0.1
v -0.3 0.6 0.1
v 0.3 0.6 0.1
v 0.4 0.6 0.1
v -0.5 0.6 0
v -0.4 0.6 0
v 0.4 0.6 0
v 0.5 0.6 0
v -0.5 0.6 -0.2
v -0.3 0.6 -0.2
v 0.3 0.6 -0.2
v 0.5 0.6 -0.2
v -0.2 0.7 0.4
v 0.2 0.7 0.4
v -0.3 0.7 0.3
v -0.2 0.7 0.3
v 0.2 0.7 0.3
v 0.3 0.7 0.3
v -0.3 0.7 -0.3
v -0.2 0.7 -0.3
v 0.2 0.7 -0.3
v 0.3 0.7 -0.3
v -0.3 0.7 -0.4
v -0.2 0.7 -0.4
v 0.2 0.7 -0.4
v 0.3 0.7 -0.4
v -0.2 0.7 -0.5
v 0.2 0.7 -0.5
v -0.2 0.8 0.3
v 0.2 0.8 0.3
v -0.1 0.8 0.1
v 0.1 0.8 0.1
v -0.1 0.8 -0.2
v 0.1 0.8 -0.2
v -0.2 0.8 -0.3
v 0.2 0.8 -0.3
v -0.2 0.8 -0.4
v 0.2 0.8 -0.4
v -0.1 0.9 0.1
v 0.1 0.9 0.1
v -0.1 0.9 0
v 0.1 0.9 0
v -0.1 1 0
v 0.1 1 0
v -0.1 1 -0.2
v 0.1 1 -0.2

# faces
f 3/3/1 2/3/1 1/3/1
f 4/3/1 2/3/1 3/3/1
f 7/3/1 6/3/1 5/3/1
f 8/3/1 6/3/1 7/3/1
f 12/2/1 10/2/1 9/2/1
f 13/2/1 10/2/1 12/2/1
f 14/2/1 12/2/1 9/2/1
f 15/2/1 10/2/1 13/2/1
f 16/2/1 14/2/1 9/2/1
f 16/2/1 15/2/1 14/2/1
f 17/3/1 11/3/1 10/3/1
f 17/2/1 15/2/1 16/2/1
f 17/2/1 10/2/1 15/2/1
f 18/3/1 11/3/1 17/3/1
f 23/2/1 20/2/1 19/2/1
f 24/3/1 21/3/1 20/3/1
f 24/2/1 20/2/1 23/2/1
f 25/3/1 21/3/1 24/3/1
f 27/1/1 23/1/1 22/1/1
f 28/1/1 23/1/1 27/1/1
f 30/3/1 26/3/1 25/3/1
f 31/3/1 26/3/1 30/3/1
f 32/2/1 29/2/1 28/2/1
f 33/3/1 30/3/1 29/3/1
f 33/2/1 29/2/1 32/2/1
f 34/3/1 30/3/1 33/3/1
f 38/3/1 36/3/1 35/3/1
f 39/3/1 38/3/1 37/3/1
f 40/3/1 36/3/1 38/3/1
f 40/3/1 38/3/1 39/3/1
f 43/1/1 42/1/1 41/1/1
f 44/1/1 42/1/1 43/1/1
f 47/3/1 46/3/1 45/3/1
f 48/3/1 46/3/1 47/3/1
f 49/3/1 46/3/1 48/3/1
f 50/3/1 46/3/1 49/3/1
f 53/1/1 52/1/1 51/1/1
f 54/1/1 52/1/1 53/1/1
f 57/2/1 56/2/1 55/2/1
f 58/2/1 56/2/1 57/2/1
f 59/2/2 60/2/2 61/2/2
f 61/2/2 60/2/2 62/2/2
f 63/1/2 64/1/2 65/1/2
f 65/1/2 64/1/2 66/1/2
f 67/3/2 68/3/2 70/3/2
f 69/3/2 70/3/2 71/3/2
f 70/3/2 68/3/2 72/3/2
f 71/3/2 70/3/2 72/3/2
f 73/1/2 74/1/2 75/1/2
f 75/1/2 74/1/2 76/1/2
f 77/3/2 78/3/2 79/3/2
f 79/3/2 78/3/2 80/3/2
f 80/3/2 78/3/2 81/3/2
f 81/3/2 78/3/2 82/3/2
f 83/2/2 84/2/2 87/2/2
f 84/3/2 85/3/2 88/3/2
f 87/2/2 84/2/2 88/2/2
f 88/3/2 85/3/2 89/3/2
f 86/1/2 87/1/2 91/1/2
f 91/1/2 87/1/2 92/1/2
f 89/3/2 90/3/2 94/3/2
f 94/3/2 90/3/2 95/3/2
f 92/2/2 93/2/2 96/2/2
f 93/3/2 94/3/2 97/3/2
f 96/2/2 93/2/2 97/2/2
f 97/3/2 94/3/2 98/3/2
f 99/2/2 100/2/2 102/2/2
f 102/2/2 100/2/2 103/2/2
f 99/2/2 102/2/2 104/2/2
f 103/2/2 100/2/2 105/2/2
f 99/2/2 104/2/2 106/2/2
f 104/2/2 105/2/2 106/2/2
f 100/3/2 101/3/2 107/3/2
f 106/2/2 105/2/2 107/2/2
f 105/2/2 100/2/2 107/2/2
f 107/3/2 101/3/2 108/3/2
f 109/3/2 110/3/2 111/3/2
f 111/3/2 110/3/2 112/3/2
f 113/3/2 114/3/2 115/3/2
f 115/3/2 114/3/2 116/3/2
f 119/1/3 118/1/3 117/1/3
f 120/1/3 118/1/3 119/1/3
f 123/1/3 122/1/3 121/1/3
f 124/1/3 122/1/3 123/1/3
f 125/1/3 123/1/3 121/1/3
f 126/1/3 122/1/3 124/1/3
f 127/1/3 125/1/3 121/1/3
f 127/1/3 126/1/3 125/1/3
f 128/1/3 122/1/3 126/1/3
f 128/1/3 126/1/3 127/1/3
f 132/2/3 130/2/3 129/2/3
f 133/2/3 130/2/3 132/2/3
f 135/2/3 132/2/3 131/2/3
f 136/2/3 132/2/3 135/2/3
f 137/2/3 134/2/3 133/2/3
f 138/2/3 134/2/3 137/2/3
f 139/2/3 137/2/3 136/2/3
f 140/2/3 137/2/3 139/2/3
f 143/3/3 142/3/3 141/3/3
f 144/3/3 142/3/3 143/3/3
f 149/3/3 146/3/3 145/3/3
f 150/3/3 146/3/3 149/3/3
f 151/3/3 148/3/3 147/3/3
f 152/3/3 148/3/3 151/3/3
f 155/3/3 154/3/3 153/3/3
f 156/3/3 154/3/3 155/3/3
f 159/3/3 158/3/3 157/3/3
f 160/3/3 158/3/3 159/3/3
f 165/3/3 162/3/3 161/3/3
f 166/3/3 162/3/3 165/3/3
f 167/3/3 164/3/3 163/3/3
f 168/3/3 164/3/3 167/3/3
f 171/3/3 170/3/3 169/3/3
f 172/3/3 170/3/3 171/3/3
f 175/3/3 174/3/3 173/3/3
f 176/3/3 174/3/3 175/3/3
f 177/1/4 178/1/4 179/1/4
f 179/1/4 178/1/4 180/1/4
f 181/1/4 182/1/4 183/1/4
f 183/1/4 182/1/4 184/1/4
f 181/1/4 183/1/4 185/1/4
f 184/1/4 182/1/4 186/1/4
f 181/1/4 185/1/4 187/1/4
f 185/1/4 186/1/4 187/1/4
f 186/1/4 182/1/4 188/1/4
f 187/1/4 186/1/4 188/1/4
f 189/3/4 190/3/4 191/3/4
f 191/3/4 190/3/4 192/3/4
f 193/3/4 194/3/4 197/3/4
f 197/3/4 194/3/4 198/3/4
f 195/3/4 196/3/4 199/3/4
f 199/3/4 196/3/4 200/3/4
f 201/3/4 202/3/4 203/3/4
f 203/3/4 202/3/4 204/3/4
f 205/3/4 206/3/4 208/3/4
f 208/3/4 206/3/4 209/3/4
f 207/3/4 208/3/4 211/3/4
f 211/3/4 208/3/4 212/3/4
f 209/3/4 210/3/4 213/3/4
f 213/3/4 210/3/4 214/3/4
f 212/3/4 213/3/4 215/3/4
f 215/3/4 213/3/4 216/3/4
f 217/3/4 218/3/4 219/3/4
f 219/3/4 218/3/4 220/3/4
f 223/3/5 222/3/5 221/3/5
f 224/3/5 222/3/5 223/3/5
f 227/3/5 226/3/5 225/3/5
f 228/3/5 226/3/5 227/3/5
f 231/2/5 230/2/5 229/2/5
f 232/2/5 230/2/5 231/2/5
f 233/2/5 231/2/5 229/2/5
f 234/2/5 230/2/5 232/2/5
f 235/2/5 233/2/5 229/2/5
f 235/2/5 234/2/5 233/2/5
f 236/2/5 230/2/5 234/2/5
f 236/2/5 234/2/5 235/2/5
f 237/3/5 236/3/5 235/3/5
f 238/3/5 236/3/5 237/3/5
f 242/1/5 240/1/5 239/1/5
f 243/1/5 240/1/5 242/1/5
f 245/2/5 242/2/5 241/2/5
f 246/2/5 242/2/5 245/2/5
f 247/2/5 244/2/5 243/2/5
f 248/2/5 244/2/5 247/2/5
f 249/3/5 246/3/5 245/3/5
f 250/3/5 246/3/5 249/3/5
f 251/3/5 248/3/5 247/3/5
f 252/3/5 248/3/5 251/3/5
f 253/3/5 251/3/5 250/3/5
f 254/3/5 251/3/5 253/3/5
f 257/1/5 256/1/5 255/1/5
f 258/1/5 256/1/5 257/1/5
f 264/3/5 260/3/5 259/3/5
f 265/3/5 262/3/5 261/3/5
f 267/3/5 264/3/5 263/3/5
f 268/3/5 260/3/5 264/3/5
f 268/3/5 264/3/5 267/3/5
f 269/3/5 266/3/5 265/3/5
f 269/3/5 265/3/5 261/3/5
f 270/3/5 266/3/5 269/3/5
f 273/1/5 272/1/5 271/1/5
f 274/1/5 272/1/5 273/1/5
f 277/2/5 276/2/5 275/2/5
f 278/2/5 276/2/5 277/2/5
f 279/2/6 280/2/6 281/2/6
f 281/2/6 280/2/6 282/2/6
f 283/1/6 284/1/6 285/1/6
f 285/1/6 284/1/6 286/1/6
f 287/1/6 288/1/6 289/1/6
f 289/1/6 288/1/6 290/1/6
f 291/3/6 292/3/6 296/3/6
f 293/3/6 294/3/6 297/3/6
f 295/3/6 296/3/6 299/3/6
f 296/3/6 292/3/6 300/3/6
f 299/3/6 296/3/6 300/3/6
f 297/3/6 298/3/6 301/3/6
f 293/3/6 297/3/6 301/3/6
f 301/3/6 298/3/6 302/3/6
f 303/1/6 304/1/6 306/1/6
f 306/1/6 304/1/6 307/1/6
f 305/2/6 306/2/6 309/2/6
f 309/2/6 306/2/6 310/2/6
f 307/2/6 308/2/6 311/2/6
f 311/2/6 308/2/6 312/2/6
f 309/3/6 310/3/6 313/3/6
f 313/3/6 310/3/6 314/3/6
f 311/3/6 312/3/6 315/3/6
f 315/3/6 312/3/6 316/3/6
f 314/3/6 315/3/6 317/3/6
f 317/3/6 315/3/6 318/3/6
f 319/2/6 320/2/6 321/2/6
f 321/2/6 320/2/6 322/2/6
f 319/2/6 321/2/6 323/2/6
f 322/2/6 320/2/6 324/2/6
f 319/2/6 323/2/6 325/2/6
f 323/2/6 324/2/6 325/2/6
f 324/2/6 320/2/6 326/2/6
f 325/2/6 324/2/6 326/2/6
f 325/3/6 326/3/6 327/3/6
f 327/3/6 326/3/6 328/3/6
f 329/3/6 330/3/6 331/3/6
f 331/3/6 330/3/6 332/3/6
f 333/3/6 334/3/6 335/3/6
f 335/3/6 334/3/6 336/3/6
