# MagicaVoxel @ Ephtracy

# group
o 

# material
mtllib Tile.mtl
usemtl palette

# normals
vn -1 0 0
vn 1 0 0
vn 0 0 1
vn 0 0 -1
vn 0 -1 0
vn 0 1 0

# texcoords
vt 0.302734 0.5
vt 0.369141 0.5
vt 0.537109 0.5
vt 0.583984 0.5
vt 0.603516 0.5

# verts
v -0.5 0 0.5
v -0.5 0 -0.5
v -0.5 0.1 0.4
v -0.5 0.1 -0.1
v -0.5 0.1 -0.3
v -0.5 0.1 -0.5
v -0.5 0.2 0.5
v -0.5 0.2 0.4
v -0.5 0.2 -0.2
v -0.5 0.2 -0.3
v -0.5 0.3 -0.1
v -0.5 0.3 -0.2
v -0.5 0.4 0.4
v -0.5 0.4 0.1
v -0.5 0.5 0.5
v -0.5 0.5 0.4
v -0.5 0.5 0.1
v -0.5 0.5 -0.1
v -0.5 0.5 -0.3
v -0.5 0.5 -0.5
v -0.5 0.6 0.5
v -0.5 0.6 0.4
v -0.5 0.6 0.1
v -0.5 0.6 -0.1
v -0.5 0.6 -0.3
v -0.5 0.6 -0.5
v -0.5 0.7 -0.1
v -0.5 0.7 -0.3
v -0.5 0.9 0.2
v -0.5 0.9 0.1
v -0.5 1 0.5
v -0.5 1 0.2
v -0.5 1 0.1
v -0.5 1 -0.5
v 0.5 0 0.5
v 0.5 0 -0.5
v 0.5 0.1 0.3
v 0.5 0.1 -0.1
v 0.5 0.1 -0.2
v 0.5 0.1 -0.4
v 0.5 0.2 0.4
v 0.5 0.2 0.3
v 0.5 0.2 -0.1
v 0.5 0.2 -0.2
v 0.5 0.2 -0.4
v 0.5 0.2 -0.5
v 0.5 0.3 0.5
v 0.5 0.3 0.4
v 0.5 0.4 -0.1
v 0.5 0.4 -0.3
v 0.5 0.5 0.3
v 0.5 0.5 -0.1
v 0.5 0.5 -0.3
v 0.5 0.5 -0.4
v 0.5 0.6 0.4
v 0.5 0.6 0.3
v 0.5 0.6 -0.1
v 0.5 0.6 -0.3
v 0.5 0.6 -0.4
v 0.5 0.6 -0.5
v 0.5 0.7 0.5
v 0.5 0.7 0.4
v 0.5 0.7 0.3
v 0.5 0.7 -0.4
v 0.5 0.7 -0.5
v 0.5 0.8 0.5
v 0.5 0.8 0.4
v 0.5 1 0.5
v 0.5 1 -0.5
v -0.5 0 0.5
v -0.5 0.2 0.5
v -0.5 0.5 0.5
v -0.5 0.6 0.5
v -0.5 1 0.5
v -0.4 0.2 0.5
v -0.4 0.3 0.5
v -0.3 0.1 0.5
v -0.3 0.3 0.5
v -0.2 0.1 0.5
v -0.2 0.2 0.5
v -0.2 0.5 0.5
v -0.2 0.6 0.5
v -0.2 0.7 0.5
v -0.1 0.5 0.5
v -0.1 0.6 0.5
v -0.1 0.7 0.5
v 0 0.1 0.5
v 0 0.2 0.5
v 0.2 0.1 0.5
v 0.2 0.2 0.5
v 0.2 0.5 0.5
v 0.2 0.6 0.5
v 0.2 0.7 0.5
v 0.3 0.6 0.5
v 0.3 0.7 0.5
v 0.3 0.8 0.5
v 0.4 0.2 0.5
v 0.4 0.3 0.5
v 0.5 0 0.5
v 0.5 0.3 0.5
v 0.5 0.7 0.5
v 0.5 0.8 0.5
v 0.5 1 0.5
v -0.5 0 -0.5
v -0.5 0.1 -0.5
v -0.5 0.5 -0.5
v -0.5 0.6 -0.5
v -0.5 1 -0.5
v -0.4 0.1 -0.5
v -0.4 0.2 -0.5
v -0.4 0.5 -0.5
v -0.4 0.6 -0.5
v -0.4 0.7 -0.5
v -0.3 0.1 -0.5
v -0.3 0.2 -0.5
v -0.2 0.5 -0.5
v -0.2 0.6 -0.5
v -0.2 0.7 -0.5
v -0.1 0.9 -0.5
v -0.1 1 -0.5
v 0 0.4 -0.5
v 0 0.5 -0.5
v 0 0.6 -0.5
v 0 0.9 -0.5
v 0 1 -0.5
v 0.2 0.4 -0.5
v 0.2 0.5 -0.5
v 0.2 0.7 -0.5
v 0.3 0.1 -0.5
v 0.3 0.2 -0.5
v 0.3 0.5 -0.5
v 0.3 0.7 -0.5
v 0.3 0.8 -0.5
v 0.4 0.6 -0.5
v 0.4 0.7 -0.5
v 0.4 0.8 -0.5
v 0.5 0 -0.5
v 0.5 0.2 -0.5
v 0.5 0.6 -0.5
v 0.5 0.7 -0.5
v 0.5 1 -0.5
v -0.5 0 0.5
v 0.5 0 0.5
v -0.5 0 -0.5
v 0.5 0 -0.5
v -0.5 1 0.5
v 0.5 1 0.5
v 0.1 1 0.4
v 0.2 1 0.4
v -0.2 1 0.3
v -0.1 1 0.3
v 0.1 1 0.3
v 0.2 1 0.3
v 0.3 1 0.3
v -0.5 1 0.2
v -0.4 1 0.2
v -0.2 1 0.2
v -0.1 1 0.2
v 0 1 0.2
v 0.2 1 0.2
v 0.3 1 0.2
v 0.4 1 0.2
v -0.5 1 0.1
v -0.4 1 0.1
v -0.3 1 0.1
v -0.1 1 0.1
v 0 1 0.1
v 0.1 1 0.1
v 0.3 1 0.1
v 0.4 1 0.1
v -0.4 1 0
v -0.3 1 0
v -0.2 1 0
v 0 1 0
v 0.1 1 0
v -0.3 1 -0.1
v -0.2 1 -0.1
v 0.1 1 -0.1
v 0.2 1 -0.1
v -0.3 1 -0.2
v -0.2 1 -0.2
v 0.1 1 -0.2
v 0.2 1 -0.2
v 0.3 1 -0.2
v -0.3 1 -0.3
v -0.2 1 -0.3
v -0.1 1 -0.3
v 0.2 1 -0.3
v 0.3 1 -0.3
v 0.4 1 -0.3
v -0.2 1 -0.4
v -0.1 1 -0.4
v 0 1 -0.4
v 0.3 1 -0.4
v 0.4 1 -0.4
v -0.5 1 -0.5
v -0.1 1 -0.5
v 0 1 -0.5
v 0.5 1 -0.5

# faces
f 3/3/1 2/3/1 1/3/1
f 4/3/1 2/3/1 3/3/1
f 5/3/1 2/3/1 4/3/1
f 6/3/1 2/3/1 5/3/1
f 7/3/1 3/3/1 1/3/1
f 8/2/1 4/2/1 3/2/1
f 8/3/1 3/3/1 7/3/1
f 9/3/1 5/3/1 4/3/1
f 10/2/1 6/2/1 5/2/1
f 10/3/1 5/3/1 9/3/1
f 11/2/1 4/2/1 8/2/1
f 11/3/1 9/3/1 4/3/1
f 11/2/1 8/2/1 7/2/1
f 12/2/1 10/2/1 9/2/1
f 12/3/1 9/3/1 11/3/1
f 13/2/1 11/2/1 7/2/1
f 13/2/1 12/2/1 11/2/1
f 14/2/1 12/2/1 13/2/1
f 15/2/1 13/2/1 7/2/1
f 16/1/1 14/1/1 13/1/1
f 16/2/1 13/2/1 15/2/1
f 17/2/1 12/2/1 14/2/1
f 17/1/1 14/1/1 16/1/1
f 18/2/1 12/2/1 17/2/1
f 19/2/1 6/2/1 10/2/1
f 19/2/1 12/2/1 18/2/1
f 19/2/1 10/2/1 12/2/1
f 20/2/1 6/2/1 19/2/1
f 21/1/1 16/1/1 15/1/1
f 22/4/1 17/4/1 16/4/1
f 22/1/1 16/1/1 21/1/1
f 23/1/1 18/1/1 17/1/1
f 23/4/1 17/4/1 22/4/1
f 24/2/1 19/2/1 18/2/1
f 24/1/1 18/1/1 23/1/1
f 25/1/1 20/1/1 19/1/1
f 25/2/1 19/2/1 24/2/1
f 26/1/1 20/1/1 25/1/1
f 27/4/1 22/4/1 21/4/1
f 27/4/1 23/4/1 22/4/1
f 27/4/1 24/4/1 23/4/1
f 27/1/1 25/1/1 24/1/1
f 28/4/1 26/4/1 25/4/1
f 28/1/1 25/1/1 27/1/1
f 29/4/1 27/4/1 21/4/1
f 29/4/1 28/4/1 27/4/1
f 30/4/1 28/4/1 29/4/1
f 31/4/1 29/4/1 21/4/1
f 32/5/1 30/5/1 29/5/1
f 32/4/1 29/4/1 31/4/1
f 33/4/1 28/4/1 30/4/1
f 33/5/1 30/5/1 32/5/1
f 34/4/1 26/4/1 28/4/1
f 34/4/1 28/4/1 33/4/1
f 35/3/2 36/3/2 37/3/2
f 37/3/2 36/3/2 38/3/2
f 38/3/2 36/3/2 39/3/2
f 39/3/2 36/3/2 40/3/2
f 35/3/2 37/3/2 41/3/2
f 37/2/2 38/2/2 42/2/2
f 41/3/2 37/3/2 42/3/2
f 38/3/2 39/3/2 43/3/2
f 42/2/2 38/2/2 43/2/2
f 39/2/2 40/2/2 44/2/2
f 43/3/2 39/3/2 44/3/2
f 40/3/2 36/3/2 45/3/2
f 44/2/2 40/2/2 45/2/2
f 45/3/2 36/3/2 46/3/2
f 35/3/2 41/3/2 47/3/2
f 43/2/2 44/2/2 48/2/2
f 47/3/2 41/3/2 48/3/2
f 41/2/2 42/2/2 48/2/2
f 45/2/2 46/2/2 48/2/2
f 44/2/2 45/2/2 48/2/2
f 42/2/2 43/2/2 48/2/2
f 47/2/2 48/2/2 49/2/2
f 48/2/2 46/2/2 49/2/2
f 49/2/2 46/2/2 50/2/2
f 47/2/2 49/2/2 51/2/2
f 49/1/2 50/1/2 52/1/2
f 51/2/2 49/2/2 52/2/2
f 50/2/2 46/2/2 53/2/2
f 52/1/2 50/1/2 53/1/2
f 53/2/2 46/2/2 54/2/2
f 47/2/2 51/2/2 55/2/2
f 51/1/2 52/1/2 56/1/2
f 55/2/2 51/2/2 56/2/2
f 52/4/2 53/4/2 57/4/2
f 56/1/2 52/1/2 57/1/2
f 53/1/2 54/1/2 58/1/2
f 57/4/2 53/4/2 58/4/2
f 54/2/2 46/2/2 59/2/2
f 58/1/2 54/1/2 59/1/2
f 59/2/2 46/2/2 60/2/2
f 47/2/2 55/2/2 61/2/2
f 55/1/2 56/1/2 62/1/2
f 61/2/2 55/2/2 62/2/2
f 57/4/2 58/4/2 63/4/2
f 62/1/2 56/1/2 63/1/2
f 56/4/2 57/4/2 63/4/2
f 58/4/2 59/4/2 63/4/2
f 59/1/2 60/1/2 64/1/2
f 63/4/2 59/4/2 64/4/2
f 64/1/2 60/1/2 65/1/2
f 61/1/2 62/1/2 66/1/2
f 62/4/2 63/4/2 67/4/2
f 66/1/2 62/1/2 67/1/2
f 63/4/2 64/4/2 67/4/2
f 64/4/2 65/4/2 67/4/2
f 66/4/2 67/4/2 68/4/2
f 67/4/2 65/4/2 69/4/2
f 68/4/2 67/4/2 69/4/2
f 75/3/3 71/3/3 70/3/3
f 75/2/3 72/2/3 71/2/3
f 76/2/3 72/2/3 75/2/3
f 77/3/3 75/3/3 70/3/3
f 77/3/3 76/3/3 75/3/3
f 78/2/3 72/2/3 76/2/3
f 78/3/3 76/3/3 77/3/3
f 79/3/3 77/3/3 70/3/3
f 79/2/3 78/2/3 77/2/3
f 80/2/3 78/2/3 79/2/3
f 81/1/3 73/1/3 72/1/3
f 81/2/3 78/2/3 80/2/3
f 81/2/3 72/2/3 78/2/3
f 82/4/3 74/4/3 73/4/3
f 82/1/3 73/1/3 81/1/3
f 83/4/3 74/4/3 82/4/3
f 84/2/3 81/2/3 80/2/3
f 84/2/3 82/2/3 81/2/3
f 85/1/3 83/1/3 82/1/3
f 85/2/3 82/2/3 84/2/3
f 86/4/3 74/4/3 83/4/3
f 86/1/3 83/1/3 85/1/3
f 87/3/3 80/3/3 79/3/3
f 87/3/3 79/3/3 70/3/3
f 88/2/3 84/2/3 80/2/3
f 88/3/3 80/3/3 87/3/3
f 89/3/3 87/3/3 70/3/3
f 89/2/3 88/2/3 87/2/3
f 90/2/3 84/2/3 88/2/3
f 90/2/3 88/2/3 89/2/3
f 91/1/3 85/1/3 84/1/3
f 91/2/3 84/2/3 90/2/3
f 92/4/3 86/4/3 85/4/3
f 92/1/3 85/1/3 91/1/3
f 93/4/3 74/4/3 86/4/3
f 93/4/3 86/4/3 92/4/3
f 94/2/3 92/2/3 91/2/3
f 94/2/3 91/2/3 90/2/3
f 94/1/3 93/1/3 92/1/3
f 95/4/3 74/4/3 93/4/3
f 95/1/3 93/1/3 94/1/3
f 96/4/3 74/4/3 95/4/3
f 97/3/3 90/3/3 89/3/3
f 97/2/3 94/2/3 90/2/3
f 97/2/3 95/2/3 94/2/3
f 98/2/3 95/2/3 97/2/3
f 99/3/3 89/3/3 70/3/3
f 99/3/3 97/3/3 89/3/3
f 99/3/3 98/3/3 97/3/3
f 100/2/3 95/2/3 98/2/3
f 100/3/3 98/3/3 99/3/3
f 101/1/3 96/1/3 95/1/3
f 101/2/3 95/2/3 100/2/3
f 102/4/3 74/4/3 96/4/3
f 102/1/3 96/1/3 101/1/3
f 103/4/3 74/4/3 102/4/3
f 104/3/4 105/3/4 109/3/4
f 105/2/4 106/2/4 109/2/4
f 109/2/4 106/2/4 110/2/4
f 106/1/4 107/1/4 111/1/4
f 110/2/4 106/2/4 111/2/4
f 107/4/4 108/4/4 112/4/4
f 111/1/4 107/1/4 112/1/4
f 112/4/4 108/4/4 113/4/4
f 109/3/4 110/3/4 114/3/4
f 104/3/4 109/3/4 114/3/4
f 110/2/4 111/2/4 115/2/4
f 114/3/4 110/3/4 115/3/4
f 111/2/4 112/2/4 115/2/4
f 114/2/4 115/2/4 116/2/4
f 115/2/4 112/2/4 116/2/4
f 112/1/4 113/1/4 117/1/4
f 116/2/4 112/2/4 117/2/4
f 113/4/4 108/4/4 118/4/4
f 117/1/4 113/1/4 118/1/4
f 117/4/4 118/4/4 119/4/4
f 118/4/4 108/4/4 119/4/4
f 119/4/4 108/4/4 120/4/4
f 114/2/4 116/2/4 121/2/4
f 116/1/4 117/1/4 122/1/4
f 121/2/4 116/2/4 122/2/4
f 117/4/4 119/4/4 123/4/4
f 122/1/4 117/1/4 123/1/4
f 119/5/4 120/5/4 124/5/4
f 123/4/4 119/4/4 124/4/4
f 124/5/4 120/5/4 125/5/4
f 114/2/4 121/2/4 126/2/4
f 121/1/4 122/1/4 126/1/4
f 124/4/4 125/4/4 127/4/4
f 126/1/4 122/1/4 127/1/4
f 122/4/4 123/4/4 127/4/4
f 123/4/4 124/4/4 127/4/4
f 127/4/4 125/4/4 128/4/4
f 104/3/4 114/3/4 129/3/4
f 114/2/4 126/2/4 129/2/4
f 126/2/4 127/2/4 129/2/4
f 129/2/4 127/2/4 130/2/4
f 127/1/4 128/1/4 131/1/4
f 130/2/4 127/2/4 131/2/4
f 128/4/4 125/4/4 132/4/4
f 131/1/4 128/1/4 132/1/4
f 132/4/4 125/4/4 133/4/4
f 130/2/4 131/2/4 134/2/4
f 131/2/4 132/2/4 134/2/4
f 132/1/4 133/1/4 135/1/4
f 134/2/4 132/2/4 135/2/4
f 133/4/4 125/4/4 136/4/4
f 135/1/4 133/1/4 136/1/4
f 129/3/4 130/3/4 137/3/4
f 104/3/4 129/3/4 137/3/4
f 130/2/4 134/2/4 138/2/4
f 137/3/4 130/3/4 138/3/4
f 134/1/4 135/1/4 139/1/4
f 138/2/4 134/2/4 139/2/4
f 135/4/4 136/4/4 140/4/4
f 139/1/4 135/1/4 140/1/4
f 136/4/4 125/4/4 141/4/4
f 140/4/4 136/4/4 141/4/4
f 144/3/5 143/3/5 142/3/5
f 145/3/5 143/3/5 144/3/5
f 146/4/6 147/4/6 148/4/6
f 148/4/6 147/4/6 149/4/6
f 146/4/6 148/4/6 150/4/6
f 150/4/6 148/4/6 151/4/6
f 148/5/6 149/5/6 152/5/6
f 151/4/6 148/4/6 152/4/6
f 149/4/6 147/4/6 153/4/6
f 152/5/6 149/5/6 153/5/6
f 153/4/6 147/4/6 154/4/6
f 146/4/6 150/4/6 155/4/6
f 155/4/6 150/4/6 156/4/6
f 150/5/6 151/5/6 157/5/6
f 156/4/6 150/4/6 157/4/6
f 151/4/6 152/4/6 158/4/6
f 157/5/6 151/5/6 158/5/6
f 152/4/6 153/4/6 158/4/6
f 158/4/6 153/4/6 159/4/6
f 153/5/6 154/5/6 160/5/6
f 159/4/6 153/4/6 160/4/6
f 154/4/6 147/4/6 161/4/6
f 160/5/6 154/5/6 161/5/6
f 161/4/6 147/4/6 162/4/6
f 155/5/6 156/5/6 163/5/6
f 156/4/6 157/4/6 164/4/6
f 163/5/6 156/5/6 164/5/6
f 157/4/6 158/4/6 164/4/6
f 164/4/6 158/4/6 165/4/6
f 158/5/6 159/5/6 166/5/6
f 165/4/6 158/4/6 166/4/6
f 159/4/6 160/4/6 167/4/6
f 166/5/6 159/5/6 167/5/6
f 160/4/6 161/4/6 167/4/6
f 167/4/6 161/4/6 168/4/6
f 161/5/6 162/5/6 169/5/6
f 168/4/6 161/4/6 169/4/6
f 162/4/6 147/4/6 170/4/6
f 169/5/6 162/5/6 170/5/6
f 164/5/6 165/5/6 171/5/6
f 163/4/6 164/4/6 171/4/6
f 165/4/6 166/4/6 172/4/6
f 171/5/6 165/5/6 172/5/6
f 166/4/6 167/4/6 172/4/6
f 172/4/6 167/4/6 173/4/6
f 167/5/6 168/5/6 174/5/6
f 173/4/6 167/4/6 174/4/6
f 168/4/6 169/4/6 175/4/6
f 174/5/6 168/5/6 175/5/6
f 169/4/6 170/4/6 175/4/6
f 172/5/6 173/5/6 176/5/6
f 171/4/6 172/4/6 176/4/6
f 173/4/6 174/4/6 177/4/6
f 176/5/6 173/5/6 177/5/6
f 174/4/6 175/4/6 177/4/6
f 175/4/6 170/4/6 178/4/6
f 177/4/6 175/4/6 178/4/6
f 178/4/6 170/4/6 179/4/6
f 171/4/6 176/4/6 180/4/6
f 176/4/6 177/4/6 180/4/6
f 177/4/6 178/4/6 180/4/6
f 180/4/6 178/4/6 181/4/6
f 178/5/6 179/5/6 182/5/6
f 181/4/6 178/4/6 182/4/6
f 179/4/6 170/4/6 183/4/6
f 182/5/6 179/5/6 183/5/6
f 183/4/6 170/4/6 184/4/6
f 180/5/6 181/5/6 185/5/6
f 171/4/6 180/4/6 185/4/6
f 181/4/6 182/4/6 186/4/6
f 185/5/6 181/5/6 186/5/6
f 182/4/6 183/4/6 186/4/6
f 186/4/6 183/4/6 187/4/6
f 183/5/6 184/5/6 188/5/6
f 187/4/6 183/4/6 188/4/6
f 184/4/6 170/4/6 189/4/6
f 188/5/6 184/5/6 189/5/6
f 170/4/6 147/4/6 190/4/6
f 189/4/6 170/4/6 190/4/6
f 186/5/6 187/5/6 191/5/6
f 185/4/6 186/4/6 191/4/6
f 188/4/6 189/4/6 192/4/6
f 191/5/6 187/5/6 192/5/6
f 187/4/6 188/4/6 192/4/6
f 192/4/6 189/4/6 193/4/6
f 189/5/6 190/5/6 194/5/6
f 193/4/6 189/4/6 194/4/6
f 190/4/6 147/4/6 195/4/6
f 194/5/6 190/5/6 195/5/6
f 171/4/6 185/4/6 196/4/6
f 163/4/6 171/4/6 196/4/6
f 185/4/6 191/4/6 196/4/6
f 191/4/6 192/4/6 196/4/6
f 192/5/6 193/5/6 197/5/6
f 196/4/6 192/4/6 197/4/6
f 194/4/6 195/4/6 198/4/6
f 197/5/6 193/5/6 198/5/6
f 193/4/6 194/4/6 198/4/6
f 195/4/6 147/4/6 199/4/6
f 198/4/6 195/4/6 199/4/6
